<svg xmlns="http://www.w3.org/2000/svg" viewBox="0 0 50 50"><defs><style>.a{fill:#264653;}.b{fill:#2a9d8f;}</style></defs><path class="a" d="M39.77,26.06h-3.1A12.47,12.47,0,0,0,35.79,24l2.2-2.2a1,1,0,0,0,0-1.42l-3.87-3.88a1,1,0,0,0-1.42,0l-2.2,2.21a12.47,12.47,0,0,0-2.09-.88V14.7a1,1,0,0,0-1-1H21.93a1,1,0,0,0-1,1v3.1a12.93,12.93,0,0,0-2.1.88l-2.2-2.21a1,1,0,0,0-1.42,0l-3.87,3.88a1,1,0,0,0,0,1.42l2.2,2.2a11.66,11.66,0,0,0-.87,2.09H9.56a1,1,0,0,0-1,1v5.48a1,1,0,0,0,1,1h3.11a12.07,12.07,0,0,0,.87,2.1l-2.2,2.2a1,1,0,0,0,0,1.42l3.87,3.87a1,1,0,0,0,1.42,0l2.2-2.2a12.07,12.07,0,0,0,2.1.87v3.11a1,1,0,0,0,1,1H27.4a1,1,0,0,0,1-1V41.8a11.66,11.66,0,0,0,2.09-.87l2.2,2.2a1,1,0,0,0,1.42,0L38,39.26a1,1,0,0,0,0-1.42l-2.2-2.2a12.93,12.93,0,0,0,.88-2.1h3.1a1,1,0,0,0,1-1V27.06A1,1,0,0,0,39.77,26.06Zm-15.1,8.82a5.08,5.08,0,1,1,5.08-5.08A5.08,5.08,0,0,1,24.67,34.88Z"/><path class="a" d="M24.67,28.05a1.76,1.76,0,1,0,1.75,1.75A1.75,1.75,0,0,0,24.67,28.05Z"/><path class="b" d="M43.14,16.85l-2-8.9-.91,1.94c-3-2.81-7.91-5.8-15.58-5.8-12.59,0-17.4,8.42-17.6,8.78a1.7,1.7,0,0,0,.66,2.3A1.72,1.72,0,0,0,10,14.52c.16-.29,4.11-7,14.63-7a18.79,18.79,0,0,1,12.56,4.26l-1.74.14Z"/></svg>